# xmcd CD database file generated by Grip 3.0.0
# 
# Track frame offsets:
#       150
#       12777
#       27030
# 
# Disc length: 646 seconds
# 
# Revision: 1
# Processed by: cddbd v1.5PL3 Copyright (c) Steve Scherf et al.
# Submitted via: Grip 3.0.0
# 
DISCID=13028403
DTITLE=Heppo Steel - Hello Hello
DYEAR=1996
DGENRE=Pop
TTITLE0=Hello, hello Norderstedt
TTITLE1=Hula Hoop auf der Wiese
TTITLE2=Mit Dir...
EXTD=
EXTT0=
EXTT1=
EXTT2=
PLAYORDER=
